<svg xmlns="http://www.w3.org/2000/svg" xmlns:xlink="http://www.w3.org/1999/xlink" width="2016" height="406" viewBox="0 0 2016 406">
  <defs>
    <filter id="Rectangle_4" x="850" y="48" width="316" height="316" filterUnits="userSpaceOnUse">
      <feOffset dy="3" input="SourceAlpha"/>
      <feGaussianBlur stdDeviation="15" result="blur"/>
      <feFlood flood-opacity="0.11"/>
      <feComposite operator="in" in2="blur"/>
      <feComposite in="SourceGraphic"/>
    </filter>
    <filter id="linux-svgrepo-com" x="804.897" y="-1.897" width="406.205" height="409.795" filterUnits="userSpaceOnUse">
      <feOffset input="SourceAlpha"/>
      <feGaussianBlur stdDeviation="49.5" result="blur-2"/>
      <feFlood flood-color="#ff4e00" flood-opacity="0.525"/>
      <feComposite operator="in" in2="blur-2"/>
      <feComposite in="SourceGraphic"/>
    </filter>
    <clipPath id="clip-Linux">
      <rect width="2016" height="406"/>
    </clipPath>
  </defs>
  <g id="Linux" clip-path="url(#clip-Linux)">
    <rect width="2016" height="406" fill="#fff"/>
    <g id="Group_47" data-name="Group 47" transform="translate(588.292 -216.708)">
      <g transform="matrix(1, 0, 0, 1, -588.29, 216.71)" filter="url(#Rectangle_4)">
        <rect id="Rectangle_4-2" data-name="Rectangle 4" width="226" height="226" rx="56" transform="translate(895 90)" fill="#fff"/>
      </g>
      <g transform="matrix(1, 0, 0, 1, -588.29, 216.71)" filter="url(#linux-svgrepo-com)">
        <path id="linux-svgrepo-com-2" data-name="linux-svgrepo-com" d="M105.475,86.925a2.707,2.707,0,0,1-.668-2.777A9.666,9.666,0,0,0,93.736,71.635,56.238,56.238,0,0,0,81.5,41.337c-3.937-5.659-6.327-9.244-5.378-12.091a23.022,23.022,0,0,0-3.48-20.351A21.089,21.089,0,0,0,55.072,0,21.089,21.089,0,0,0,37.5,8.895a23.022,23.022,0,0,0-3.3,20.351c.949,2.847-1.406,6.432-5.378,12.091a56.238,56.238,0,0,0-12.407,30.3A9.666,9.666,0,0,0,5.2,84.148a2.706,2.706,0,0,1-.668,2.777L3.3,88.155A9.666,9.666,0,0,0,.627,96.766a9.806,9.806,0,0,0,5.518,7.03l16.274,7.381a16.836,16.836,0,0,0,7.03,1.511,17.574,17.574,0,0,0,3.339-.211,16.942,16.942,0,0,0,6.01-2.531,49.594,49.594,0,0,0,16.274,2.531,49.419,49.419,0,0,0,16.274-2.531,16.942,16.942,0,0,0,6.01,2.531,17.573,17.573,0,0,0,3.3.316,16.836,16.836,0,0,0,7.03-1.511l16.274-7.381a9.912,9.912,0,0,0,5.553-7.03,9.771,9.771,0,0,0-2.706-8.611ZM43.157,13.007A14.27,14.27,0,0,1,55.072,7.032a14.059,14.059,0,0,1,11.915,5.975,15.922,15.922,0,0,1,2.32,14.059A11.95,11.95,0,0,0,68.78,30.3a4.323,4.323,0,0,0-.668-1.09,18.7,18.7,0,0,0-13.04-4.6,18.8,18.8,0,0,0-13.04,4.534,4.323,4.323,0,0,0-.668,1.09A11.95,11.95,0,0,0,41.013,27a16.028,16.028,0,0,1,2.144-13.989Zm15.43,19.015-3.515,2.425-3.515-2.39a18.418,18.418,0,0,1,7.03-.035Zm-27.17,73.425a9.6,9.6,0,0,1-5.94-.668L9.379,97.5a2.706,2.706,0,0,1-.773-4.394l1.23-1.23a9.736,9.736,0,0,0,2.355-9.947,2.636,2.636,0,0,1,.633-2.777,2.742,2.742,0,0,1,1.9-.808,2.847,2.847,0,0,1,.879,0,9.771,9.771,0,0,0,4.5.352h.211l1.09-.246h.246a9.244,9.244,0,0,0,3.9-2.32l1.23-1.23a2.706,2.706,0,0,1,2.425-.738,2.742,2.742,0,0,1,1.968,1.547l7.381,16.239a9.982,9.982,0,0,1,.7,5.975,9.736,9.736,0,0,1-7.838,7.522Zm12.724-1.336a16.906,16.906,0,0,0,1.828-4.921,16.485,16.485,0,0,0-1.2-10.228L37.5,72.795A9.631,9.631,0,0,0,24,68.331,52.969,52.969,0,0,1,34.546,45.379,34.446,34.446,0,0,0,41.224,32.55a3.234,3.234,0,0,0,1.371,2l10.545,7.03a3.483,3.483,0,0,0,3.9,0l10.545-7.03a3.3,3.3,0,0,0,1.336-2A34.446,34.446,0,0,0,75.6,45.379,52.969,52.969,0,0,1,86.144,68.331a9.7,9.7,0,0,0-6.362-1.09,9.877,9.877,0,0,0-7.03,5.553L65.371,89.069A16.66,16.66,0,0,0,66,104.218a49.207,49.207,0,0,1-21.862,0Zm56.8-6.713L84.667,104.78a9.56,9.56,0,0,1-5.94.668,9.736,9.736,0,0,1-7.662-7.627,9.982,9.982,0,0,1,.7-5.975l7.381-16.239a2.742,2.742,0,0,1,1.968-1.547h.527a2.777,2.777,0,0,1,1.9.773l1.23,1.23a9.455,9.455,0,0,0,3.9,2.32h.246l1.09.246h0a9.068,9.068,0,0,0,4.534-.316,2.742,2.742,0,0,1,3.515,3.515,9.666,9.666,0,0,0,2.32,9.947l1.23,1.23a2.636,2.636,0,0,1,.773,2.39,2.742,2.742,0,0,1-1.441,2.109Z" transform="translate(952.93 146.6)" fill="#ff4e00"/>
      </g>
    </g>
  </g>
</svg>
