<svg xmlns="http://www.w3.org/2000/svg" xmlns:xlink="http://www.w3.org/1999/xlink" width="152" height="23.775" viewBox="0 0 152 23.775"><defs><linearGradient id="a" x1="0.5" x2="0.5" y2="1" gradientUnits="objectBoundingBox"><stop offset="0" stop-color="#bbffc6"/><stop offset="1" stop-color="#29ff00"/></linearGradient></defs><g transform="translate(-4 -3)"><path d="M2,0H6.875V-12.425L13.725,0H19.1V-20H14.25V-7.575L7.375-20H2ZM30.425.275A8.306,8.306,0,0,0,38.75-5.65H33.9A3.672,3.672,0,0,1,30.575-3.8a3.728,3.728,0,0,1-3.8-3.05h12.25c.625-5.45-2.9-9.675-8.4-9.675-5.025,0-8.525,3.4-8.525,8.425A7.98,7.98,0,0,0,30.425.275ZM27-9.85a3.711,3.711,0,0,1,3.625-2.525,3.659,3.659,0,0,1,3.575,2.5ZM49.625.275c5.025,0,8.525-3.4,8.525-8.425,0-5-3.5-8.4-8.525-8.4S41.1-13.15,41.1-8.15C41.1-3.125,44.6.275,49.625.275Zm-3.7-8.425a3.618,3.618,0,0,1,3.7-3.875,3.618,3.618,0,0,1,3.7,3.875,3.633,3.633,0,0,1-3.7,3.925A3.633,3.633,0,0,1,45.925-8.15ZM70.3.275a9.892,9.892,0,0,0,10.2-8.45H75.475A5.058,5.058,0,0,1,70.4-4.45a5.213,5.213,0,0,1-5.25-5.575c0-3.375,2.25-5.65,5.2-5.65a5.24,5.24,0,0,1,5.05,3.8h5.05a10.126,10.126,0,0,0-10.2-8.4c-5.875,0-10.1,4.15-10.1,10.25C60.15-3.9,64.375.275,70.3.275ZM98.6-16.25H93.725V-7.1A2.822,2.822,0,0,1,90.8-4.075,2.842,2.842,0,0,1,87.85-7.1v-9.15H83V-6.7C83-2.575,85.75.275,89.45.275a4.659,4.659,0,0,0,4.4-2.3V0H98.6ZM111.9.275c4.3,0,7.6-3.4,7.6-8.4,0-4.975-3.3-8.4-7.6-8.4a6.177,6.177,0,0,0-4.55,1.825V-20H102.6V0h4.425V-1.8A6.4,6.4,0,0,0,111.9.275ZM107.425-8.15a3.545,3.545,0,0,1,3.65-3.8,3.545,3.545,0,0,1,3.65,3.8,3.573,3.573,0,0,1-3.65,3.85A3.573,3.573,0,0,1,107.425-8.15Zm22.4,8.425A8.306,8.306,0,0,0,138.15-5.65H133.3a3.672,3.672,0,0,1-3.325,1.85,3.728,3.728,0,0,1-3.8-3.05h12.25c.625-5.45-2.9-9.675-8.4-9.675-5.025,0-8.525,3.4-8.525,8.425A7.98,7.98,0,0,0,129.825.275ZM126.4-9.85a3.711,3.711,0,0,1,3.625-2.525,3.659,3.659,0,0,1,3.575,2.5Z" transform="translate(2 26.5)" fill="red"/><rect width="29" height="9" rx="4.5" transform="translate(127 3)" fill="url(#a)"/><path d="M.64,0H3.96A1.874,1.874,0,0,0,6.04-1.808,1.663,1.663,0,0,0,4.88-3.352,1.572,1.572,0,0,0,5.8-4.728,1.778,1.778,0,0,0,3.8-6.4H.64ZM2.2-1.344V-2.68H3.744a.641.641,0,0,1,.664.672.634.634,0,0,1-.664.664Zm0-2.616v-1.1H3.64a.521.521,0,0,1,.544.544.523.523,0,0,1-.544.552Zm8.273,2.312H7.864q.062.871,1.1.871a2.143,2.143,0,0,0,1.16-.312V-.2A3.048,3.048,0,0,1,8.68.1a2.029,2.029,0,0,1-1.5-.537,2.029,2.029,0,0,1-.535-1.5,2.141,2.141,0,0,1,.578-1.578A1.926,1.926,0,0,1,8.641-4.1a1.748,1.748,0,0,1,1.354.52,2,2,0,0,1,.479,1.41ZM9.329-2.406q0-.859-.7-.859a.664.664,0,0,0-.514.246,1.117,1.117,0,0,0-.264.613Zm.738-2.227H9.258l-.617-.734-.574.734H7.258L8.176-5.9h.969ZM11.792,0h1.552V-3.8h.944V-5.2h-.944V-6.4H11.792v1.2h-.944v1.4h.944Zm5.392.088a2.019,2.019,0,0,0,1.544-.656V0h1.48V-5.2h-1.48v.56a2.041,2.041,0,0,0-1.544-.648,2.475,2.475,0,0,0-2.416,2.68A2.485,2.485,0,0,0,17.184.088ZM16.3-2.6a1.137,1.137,0,0,1,1.168-1.224A1.141,1.141,0,0,1,18.632-2.6a1.148,1.148,0,0,1-1.168,1.232A1.143,1.143,0,0,1,16.3-2.6Z" transform="translate(131.076 10.651)" fill="#fff"/></g></svg>